<svg id="Layer_1" data-name="Layer 1" xmlns="http://www.w3.org/2000/svg" viewBox="0 0 147.38 160"><path d="M202.52,49.23c-4.52-5.5-8.28-11.22-8.28-13s-1.76-5.72-4-8.47c-2.26-3-3.27-5.95-2.26-6.87a1.47,1.47,0,0,1,.58-.37v-.32a1.09,1.09,0,0,0-.1-.44.42.42,0,0,1-.05-.22,2,2,0,0,1,0-.24s0,0,0,0v0h0l-.06-.05a1.22,1.22,0,0,1-.17-.15,1.07,1.07,0,0,1-.12-.61,1.67,1.67,0,0,0,0-.31.94.94,0,0,0,0-.16.13.13,0,0,0-.06-.07c-.06-.06-.14-.11-.21-.17a1.07,1.07,0,0,1-.15-.22,5.52,5.52,0,0,1-.26-.55,18.72,18.72,0,0,1-.69-2.32,3.81,3.81,0,0,0-.37-1,2,2,0,0,0-.33-.43,4.15,4.15,0,0,1-.43-.51c-.16-.22-.29-.45-.43-.68a15.64,15.64,0,0,1-4.17.8A45.33,45.33,0,0,1,167.12,11c-5.28-1.83-7.29-1.6-9,.92-2,3-3.77,2.75-11.81-1.15-6.53-3-9-5.49-8-8,1.25-3-.25-3.2-9.54-2.29a99,99,0,0,0-16.58,2.75c-3.3.86-5.47.7-5.72-.46a.91.91,0,0,1-.08-.13s0,0,0,0l-.08,0-.09,0-.06,0h0a3.47,3.47,0,0,0-.46-.13l-.24,0h-.73l-.25,0h-.09l-.11,0a3.15,3.15,0,0,0-.42.09l-.09,0s0,0,0,0l0,0-.11,0-.06,0,0,0h0s0,0,0,0a1.15,1.15,0,0,0-.22.22A15.65,15.65,0,0,1,100.82,6c-2.51,2.52-4.52,5.72-4.52,7.09s-2,3.89-4.52,5.5c-7.28,4.57-11.3,13.5-12,26.09-.76,10.75,0,12.59,8,20.14,5.53,5.26,10.55,8,13.06,7.32,12.06-3,25.62-3.89,25.62-1.6,0,1.37,2.51,2.52,5.27,2.52,4.52,0,5,1.14,4,6-.76,3.89.75,9.15,3.76,14,4,6,4.77,9.84,3.52,17.85-1.76,10.07,1,22.89,7.53,37.08,2,3.89,3.52,8.24,3.52,9.61s3.51,2.52,7.78,2.52c8.29,0,22.35-10.53,22.35-16.71,0-1.83,1.76-4.12,4-4.8a4.39,4.39,0,0,0,2.76-5.73c-.75-3,1.26-6.63,5.78-10.52,6-5.27,6.53-6.87,4.77-16.71-2-11.67,1.51-19.23,13.81-29.76a36.15,36.15,0,0,0,8.79-12.13l2.76-7.09-8.29,1.37C211.31,59.07,209.81,58.15,202.52,49.23Z" transform="translate(-79.5)"/></svg>
