<svg id="Layer_1" data-name="Layer 1" xmlns="http://www.w3.org/2000/svg" viewBox="0 0 81.57 125.66"><path d="M57.6,4.83c.8.5,1.3,1,1,1.1a23.26,23.26,0,0,1-2.7.3c-2.4.3-4.4,1.6-2.5,1.6A1.22,1.22,0,0,1,54.6,9c0,.8-1.5,1.4-3.8,1.4-2,.1-2.9,0-1.9-.3,1.6-.4,2.6-3.5,1-3.1a21.28,21.28,0,0,1-4.5-.6c-2.2-.5-4.4-.4-5.5.3-1.5.9-1.6,1-.2,1.1a2.57,2.57,0,0,1,2.2,1.3c.4,1.1-.4,1.2-3.6.8-2.3-.3-9.5-.6-16-.6-10.7,0-12,.2-13.3,2-.8,1.1-1.7,1.9-1.9,1.7a6.78,6.78,0,0,0-2.2-.1c-1.5,0-1.5.2.2.9,2,.8,2,.9-.1.9a9.31,9.31,0,0,0-3.8,1.4c-1.7,1.3-1.7,1.4.7,2.9,1.8,1.2,2.7,1.4,3.6.5,1.6-1.6,9.5-2.7,10.7-1.4a34.8,34.8,0,0,1,.9,6.1c.4,4.7.1,6.3-1.5,8.6-2.1,2.9-2.7,9.6-1,10.2.5.1,1,1.8,1.2,3.5s.6,3.3,1,3.3.8.7.8,1.7.3,1.4.6,1,.1-2-.5-3.8a12,12,0,0,1-.8-3.6c.7-.6,5.7,9.9,5.2,10.7-.8,1.2,6,5.1,7.7,4.5a2.74,2.74,0,0,1,2.8,1,4.37,4.37,0,0,0,2.7,1.5,2.58,2.58,0,0,1,2,1.7c1,2.6,3.5,4.3,5.6,3.7,1.3-.4,1.7.1,1.7,2.3a6.82,6.82,0,0,1-1.1,4C40,78,43,86.83,49.7,92.83c2.7,2.4,2.8,3,3.3,13.4.3,6.9.9,11.2,1.7,11.6a1.33,1.33,0,0,1,.5,1.8c-1.8,3,4,10.1,8.4,10.2H66l-2.3-1.6c-1.7-1.2-2.1-2.2-1.7-4,.4-1.3.2-2.4-.2-2.4s-.9-1.3-.8-2.9.4-2.7.9-2.4.7-.2.7-1,1-1.7,2.2-2c1.8-.5,1.9-.8.8-2.1s-.9-1.6.7-1.6c1.9,0,5.3-5.4,5.3-8.4,0-.8,1.3-1.9,2.9-2.4,2.4-.9,3-1.8,3.6-5.4a23.38,23.38,0,0,1,2.3-6.9c2.4-4.3,1.7-5-7.9-9.3a10.13,10.13,0,0,1-4.7-4.1,4,4,0,0,0-3-2.5c-1,0-2.9-1.1-4.2-2.5a7.83,7.83,0,0,0-4.7-2.5,9.73,9.73,0,0,1-4.3-1c-1.3-.7-2.4-.5-4.1.8a10.36,10.36,0,0,1-4.9,1.7c-2.1-.1-2.5-.5-2.5-3.3,0-2.6-.4-3.2-2.2-3.2-2,0-2.1-.3-1.2-2.6,1.2-3.2.2-4.6-1.5-2.1-1.7,2.3-5.3,2.2-6.1-.2-1.2-3.9,2.7-9.5,6.2-8.9a5.84,5.84,0,0,0,3-.5c1.7-1.1,4,.2,4.9,2.6.6,1.9.8,1.8,1.1-1.1a6.26,6.26,0,0,1,3.2-5,9.72,9.72,0,0,0,3.7-3.5,8.43,8.43,0,0,1,2.8-3.1,20.22,20.22,0,0,0,3.8-2.9c1.1-1,2.7-1.6,3.6-1.3a4.45,4.45,0,0,0,3.2-.4c1.3-.9,1.3-1,0-1a1.83,1.83,0,0,1-1.6-2c0-1.9,1.9-2.5,7.4-2.3,1.4.1,1.6-3.3.2-4.2a3.49,3.49,0,0,1-1-2.6c0-2.1-1.5-2.5-2.6-.7-.5.7-1,.4-1.5-1-1.2-3.1-4.7-2.8-6.2.5-1.3,2.9-5,7.3-6.1,7.3-.3,0-.6-.9-.6-2,0-1.3-.9-2.2-2.6-2.6s-2.4-1.2-2.2-2.3c.4-2.2,6.8-5.1,9.7-4.4,1.5.4,2.2.2,1.8-.4-.7-1,3.3-4.3,5.1-4.3a8.52,8.52,0,0,1,2.8,1.5c1,.8,1.5,1.5.9,1.4a22.71,22.71,0,0,0-3.5.1c-1.8.2-2,.4-.7.7.9.2,1.7.9,1.7,1.4s1.1.8,2.5.7c1.7-.2,2.4-.7,2-1.6s0-1.2,1-.9c2.5,1,2.6-1,0-3.7C69,7.13,67.9,6.73,64.3,7c-3.2.2-4.1.7-3.9,1.9a2.23,2.23,0,0,1-1.1,2.2c-.8.3-1.4-.4-1.5-1.9s.3-2.4,1.4-2.4c.8,0,1.3-.4,1-.9s1.2-.7,3.6-.4,4,.3,3.7-.1-3.1-.9-6-1.1C57.8,4,56.6,4.13,57.6,4.83Z" transform="translate(0 -4.17)"/></svg>