<svg id="Layer_1" data-name="Layer 1" xmlns="http://www.w3.org/2000/svg" viewBox="0 0 204.15 89.2"><path d="M9.54.7a16.65,16.65,0,0,1-4.8.66c-5.28.27-6.22,1.47-2.47,3.46C4.38,6,6,5.88,9,4.55,15.64,1.36,18.1.83,18.1,2.29c0,.8-1.41,1.47-3.05,1.47s-2.69.53-2.23,1.33a4.55,4.55,0,0,0,3.4,1.33c2.23,0,2.94.93,3.29,4,.35,2.13.11,4-.47,4-1.64,0-1.06,6.25.82,8,1.52,1.46,2.34,1.2,5-1.73,1.88-2,4.1-3.59,5.16-3.59a3.41,3.41,0,0,0,2.69-1.33c.36-.79,2-1.33,3.52-1.33,2.93,0,10-6.25,10-8.91a4.3,4.3,0,0,1,2-2.79c1.64-1.06,1.41-1.46-1.53-2C43-.23,10.25-.23,9.54.7Z" transform="translate(0 0)"/><path d="M203.91,17.45c-1.76-1.86-12.89-4.39-19.69-4.39a109,109,0,0,1-15.24-2c-5.4-1.06-10.44-1.33-12.43-.67a7.67,7.67,0,0,1-4.92,0c-.94-.66-4.93-1.32-8.91-1.59s-7.15-.93-7-1.73c.24-1.46-6.91-2-12.66-1.06a13.14,13.14,0,0,0-5.51,2.66A5.65,5.65,0,0,1,112,10c-3.75-.93-5.27.13-3.75,2.26.82,1.06-.7,1.59-4.92,1.72-8.44.27-10.55.8-12.31,2.66s-6.1,2.26-6.1.54c0-.67,1.06-.93,2.35-.54s2.34.14,2.34-.66c0-1.86-11.14-4.65-15-3.86-1.76.4-5.16,2.8-7.62,5.46-4.81,5.05-5.87,9.57-2.11,8.11a2.63,2.63,0,0,1,3.51,1.59c1.29,2.26,1.41,2.26,3-.13.94-1.33,1.41-3.06,1.06-3.72-.82-1.47,2.81-6.39,4.69-6.39.7,0,.58.67-.24,1.6-2.34,2.66-1.52,5.05,1.88,5.18,1.87.14,2.34.4,1.17.8s-2.11,1.2-2.11,1.86-.47.93-1.17.54-1.18.13-1.18,1.19c0,2.66-4.69,3.33-7.85,1.07-2.35-1.73-2.7-1.6-2.7.26a1.91,1.91,0,0,1-1.58,2.13h-.06a2.27,2.27,0,0,0-2.11,1.2c-.12.66-2.23,2.39-4.45,4s-3.4,2.79-2.58,2.79,1.4,1.19,1.4,2.66c0,2.12-.82,2.66-3.51,2.66-3.05,0-3.52.4-3.52,3.85,0,2.13.7,4.12,1.52,4.52a.94.94,0,0,1,.59.49.75.75,0,0,1,.07.12l.05.09v0h0l0,0h0l0,0H51l.06,0,.11,0h.46l.12,0,.06,0h0l.11-.06.21-.13.26-.17a4.21,4.21,0,0,1,2-1.23,3.24,3.24,0,0,0,2.35-2.66c0-1.07,1.87-2.93,4.1-4.13,4-2.26,4.22-2.12,8.21,1.33,2.22,1.87,4.1,2.8,4.1,2a2.79,2.79,0,0,0-1.64-2.26c-1.64-.67-3.64-4.52-2.35-4.52a15.38,15.38,0,0,1,3.29,2.12A9.82,9.82,0,0,1,76,49.76c.82,3.59,3.4,4.52,2.82,1.07A2.44,2.44,0,0,1,80,48a.88.88,0,0,1,1.41.67c0,2.66,3.51,5.32,6.44,4.92,2.7-.27,3.05.13,2.7,3.19-.17,1.9-.65,2.84-1.84,3.33a11.3,11.3,0,0,1,.47,1.31c.16.5.29,1,.44,1.51l.12.36c.05.12.11.24.17.36s.26.48.39.71.21.36.3.55c.86,0,2.36,2.69,6.75,12.08L101,84.87l6.22-3.73c7.38-4.25,9.73-8.64,6.33-11.43-1.53-1.33-2.7-1.46-3.64-.53s-2.11.53-3.87-1.73a18.51,18.51,0,0,1-2.34-4.26c0-1.59,2-1.06,3.4.93s8.56,4,12.54,3.59a6.16,6.16,0,0,1,4.93,3.19c1.4,2,3,3.2,3.75,2.66s1.17.27,1.17,1.73a33.35,33.35,0,0,0,2.46,8.91c2.58,6.65,4.46,6.65,5,.13.36-3.85,5.63-10.77,8.91-11.83,1.53-.4,2.7.67,4.22,3.86,1.18,2.39,2.47,4.12,2.93,3.72,1.18-.8,3.52,4.12,2.58,5.32-.35.4-.11.8.59.8a1.58,1.58,0,0,0,1.41-1.7v0c0-.8,1.29,0,2.81,2,2.7,3.33,2.93,3.46,4.69,1.2,2.46-3.06,2.34-4-.59-7.58s-2.34-7,.94-6.91a10,10,0,0,0,9.5-6.79c1-3.32.82-4.52-1.18-7.44-1.29-1.86-2-4.39-1.64-5.45.47-1.6.24-2-1-1.47-2.35,1.07-3.28-1.06-1.17-3.05,1.29-1.2,1.75-1.2,1.75-.14s.59,1.2,1.18.8c1.29-.93,4.69,2.39,4.69,4.52a1.7,1.7,0,0,0,1.87,1.46c1.53,0,1.53-.53-.35-4.12-2.11-4-2.11-4,.7-6.38,2.11-1.86,2.7-3.32,2.23-6.52-.47-3.59-.23-4,1.29-2.66,1.06.94.82.27-.47-1.33-2-2.39-4.57-3.59-9-4.12-.35-.13-.46-1.33-.11-2.79.58-2.53,3.28-3.46,8.79-2.92,1.17.13,2-.54,1.76-1.33s.94-1.47,2.46-1.47c3.87.14,4,.27,2.7,2.93-.94,1.86-.47,3.19,2.22,6.11l3.52,3.86V31.28c0-2-.82-4-1.76-4.39-2.46-1.06-2.23-3.19.35-3.19,2.23-.13,7.39-4,5.16-4a1.39,1.39,0,0,1-1.4-1.4.13.13,0,0,0,0-.06c0-.93,1.41-1.06,3.87-.53S204.62,18.25,203.91,17.45Z" transform="translate(0 0)"/></svg>