<svg id="Layer_1" data-name="Layer 1" xmlns="http://www.w3.org/2000/svg" viewBox="0 0 238.31 129.82"><path d="M72.3.53a16.21,16.21,0,0,1-4.1.5c-4.5.2-5.3,1.1-2.1,2.6,1.8.9,3.2.8,5.7-.2,5.7-2.4,7.8-2.8,7.8-1.7,0,.6-1.2,1.1-2.6,1.1s-2.3.4-1.9,1a4.15,4.15,0,0,0,2.9,1c1.9,0,2.5.7,2.8,3,.3,1.6.1,3-.4,3-1.4,0-.9,4.7.7,6,1.3,1.1,2,.9,4.3-1.3,1.6-1.5,3.5-2.7,4.4-2.7a3.13,3.13,0,0,0,2.3-1c.3-.6,1.7-1,3-1,2.5,0,8.5-4.7,8.5-6.7A3.29,3.29,0,0,1,105.3,2c1.4-.8,1.2-1.1-1.3-1.5C100.8-.17,72.9-.17,72.3.53Z" transform="translate(0 0)"/><path d="M57.6,4.83c.8.5,1.3,1,1,1.1a23.26,23.26,0,0,1-2.7.3c-2.4.3-4.4,1.6-2.5,1.6A1.22,1.22,0,0,1,54.6,9c0,.8-1.5,1.4-3.8,1.4-2,.1-2.9,0-1.9-.3,1.6-.4,2.6-3.5,1-3.1a21.28,21.28,0,0,1-4.5-.6c-2.2-.5-4.4-.4-5.5.3-1.5.9-1.6,1-.2,1.1a2.57,2.57,0,0,1,2.2,1.3c.4,1.1-.4,1.2-3.6.8-2.3-.3-9.5-.6-16-.6-10.7,0-12,.2-13.3,2-.8,1.1-1.7,1.9-1.9,1.7a6.78,6.78,0,0,0-2.2-.1c-1.5,0-1.5.2.2.9,2,.8,2,.9-.1.9a9.31,9.31,0,0,0-3.8,1.4c-1.7,1.3-1.7,1.4.7,2.9,1.8,1.2,2.7,1.4,3.6.5,1.6-1.6,9.5-2.7,10.7-1.4a34.8,34.8,0,0,1,.9,6.1c.4,4.7.1,6.3-1.5,8.6-2.1,2.9-2.7,9.6-1,10.2.5.1,1,1.8,1.2,3.5s.6,3.3,1,3.3.8.7.8,1.7.3,1.4.6,1,.1-2-.5-3.8a12,12,0,0,1-.8-3.6c.7-.6,5.7,9.9,5.2,10.7-.8,1.2,6,5.1,7.7,4.5a2.74,2.74,0,0,1,2.8,1,4.37,4.37,0,0,0,2.7,1.5,2.58,2.58,0,0,1,2,1.7c1,2.6,3.5,4.3,5.6,3.7,1.3-.4,1.7.1,1.7,2.3a6.82,6.82,0,0,1-1.1,4C40,78,43,86.83,49.7,92.83c2.7,2.4,2.8,3,3.3,13.4.3,6.9.9,11.2,1.7,11.6a1.33,1.33,0,0,1,.5,1.8c-1.8,3,4,10.1,8.4,10.2H66l-2.3-1.6c-1.7-1.2-2.1-2.2-1.7-4,.4-1.3.2-2.4-.2-2.4s-.9-1.3-.8-2.9.4-2.7.9-2.4.7-.2.7-1,1-1.7,2.2-2c1.8-.5,1.9-.8.8-2.1s-.9-1.6.7-1.6c1.9,0,5.3-5.4,5.3-8.4,0-.8,1.3-1.9,2.9-2.4,2.4-.9,3-1.8,3.6-5.4a23.38,23.38,0,0,1,2.3-6.9c2.4-4.3,1.7-5-7.9-9.3a10.13,10.13,0,0,1-4.7-4.1,4,4,0,0,0-3-2.5c-1,0-2.9-1.1-4.2-2.5a7.83,7.83,0,0,0-4.7-2.5,9.73,9.73,0,0,1-4.3-1c-1.3-.7-2.4-.5-4.1.8a10.36,10.36,0,0,1-4.9,1.7c-2.1-.1-2.5-.5-2.5-3.3,0-2.6-.4-3.2-2.2-3.2-2,0-2.1-.3-1.2-2.6,1.2-3.2.2-4.6-1.5-2.1-1.7,2.3-5.3,2.2-6.1-.2-1.2-3.9,2.7-9.5,6.2-8.9a5.84,5.84,0,0,0,3-.5c1.7-1.1,4,.2,4.9,2.6.6,1.9.8,1.8,1.1-1.1a6.26,6.26,0,0,1,3.2-5,9.72,9.72,0,0,0,3.7-3.5,8.43,8.43,0,0,1,2.8-3.1,20.22,20.22,0,0,0,3.8-2.9c1.1-1,2.7-1.6,3.6-1.3a4.45,4.45,0,0,0,3.2-.4c1.3-.9,1.3-1,0-1a1.83,1.83,0,0,1-1.6-2c0-1.9,1.9-2.5,7.4-2.3,1.4.1,1.6-3.3.2-4.2a3.49,3.49,0,0,1-1-2.6c0-2.1-1.5-2.5-2.6-.7-.5.7-1,.4-1.5-1-1.2-3.1-4.7-2.8-6.2.5-1.3,2.9-5,7.3-6.1,7.3-.3,0-.6-.9-.6-2,0-1.3-.9-2.2-2.6-2.6s-2.4-1.2-2.2-2.3c.4-2.2,6.8-5.1,9.7-4.4,1.5.4,2.2.2,1.8-.4-.7-1,3.3-4.3,5.1-4.3a8.52,8.52,0,0,1,2.8,1.5c1,.8,1.5,1.5.9,1.4a22.71,22.71,0,0,0-3.5.1c-1.8.2-2,.4-.7.7.9.2,1.7.9,1.7,1.4s1.1.8,2.5.7c1.7-.2,2.4-.7,2-1.6s0-1.2,1-.9c2.5,1,2.6-1,0-3.7C69,7.13,67.9,6.73,64.3,7c-3.2.2-4.1.7-3.9,1.9a2.23,2.23,0,0,1-1.1,2.2c-.8.3-1.4-.4-1.5-1.9s.3-2.4,1.4-2.4c.8,0,1.3-.4,1-.9s1.2-.7,3.6-.4,4,.3,3.7-.1-3.1-.9-6-1.1C57.8,4,56.6,4.13,57.6,4.83Z" transform="translate(0 0)"/><path d="M169.1,4.53a11.9,11.9,0,0,0-4.7,2,5.27,5.27,0,0,1-4.7,1c-3.2-.7-4.5.1-3.2,1.7.7.8-.6,1.2-4.2,1.3-7.2.2-9,.6-10.5,2s-5.2,1.7-5.2.4c0-.5.9-.7,2-.4s2,.1,2-.5c0-1.4-9.5-3.5-12.8-2.9-1.5.3-4.4,2.1-6.5,4.1-4.1,3.8-5,7.2-1.8,6.1a2.36,2.36,0,0,1,3,1.2c1.1,1.7,1.2,1.7,2.6-.1.8-1,1.2-2.3.9-2.8-.7-1.1,2.4-4.8,4-4.8.6,0,.5.5-.2,1.2-2,2-1.3,3.8,1.6,3.9,1.6.1,2,.3,1,.6s-1.8.9-1.8,1.4-.4.7-1,.4-1,.1-1,.9c0,2-4,2.5-6.7.8-2-1.3-2.3-1.2-2.3.2a1.49,1.49,0,0,1-1.35,1.6h0a2,2,0,0,0-1.8.9c-.1.5-1.9,1.8-3.8,3s-2.9,2.1-2.2,2.1,1.2.9,1.2,2c0,1.6-.7,2-3,2-2.6,0-3,.3-3,2.9,0,1.6.6,3.1,1.3,3.4.9.3.7.9-.5,2.4a6.85,6.85,0,0,0-1.8,3.1,4.07,4.07,0,0,1-1.8,2.4c-2.9,2-4.5,5.9-4.8,11.4-.3,4.7,0,5.5,3.2,8.8,2.2,2.3,4.2,3.5,5.2,3.2,4.8-1.3,10.2-1.7,10.2-.7,0,.6,1,1.1,2.1,1.1,1.8,0,2,.5,1.6,2.6a9.87,9.87,0,0,0,1.5,6.1c1.6,2.6,1.9,4.3,1.4,7.8-.7,4.4.4,10,3,16.2a15.16,15.16,0,0,1,1.4,4.2c0,.6,1.4,1.1,3.1,1.1,3.3,0,8.9-4.6,8.9-7.3a2.47,2.47,0,0,1,1.6-2.1,2,2,0,0,0,1.1-2.5c-.3-1.3.5-2.9,2.3-4.6,2.4-2.3,2.6-3,1.9-7.3-.8-5.1.6-8.4,5.5-13a15.85,15.85,0,0,0,3.5-5.3l1.1-3.1-3.3.6c-2.9.5-3.5.1-6.4-3.8-1.8-2.4-3.3-4.9-3.3-5.7A8,8,0,0,0,142,52c-.9-1.3-1.3-2.6-.9-3,.7-.8,1.7.6,6.1,8.9l3.1,5.9,5.3-2.8c6.3-3.2,8.3-6.5,5.4-8.6-1.3-1-2.3-1.1-3.1-.4s-1.8.4-3.3-1.3a13.12,13.12,0,0,1-2-3.2c0-1.2,1.7-.8,2.9.7s7.3,3,10.7,2.7a5.35,5.35,0,0,1,4.2,2.4c1.2,1.5,2.6,2.4,3.2,2s1,.2,1,1.3a22.83,22.83,0,0,0,2.1,6.7c2.2,5,3.8,5,4.3.1.3-2.9,4.8-8.1,7.6-8.9,1.3-.3,2.3.5,3.6,2.9,1,1.8,2.1,3.1,2.5,2.8,1-.6,3,3.1,2.2,4-.3.3-.1.6.5.6a1.24,1.24,0,0,0,1.2-1.28v0c0-.6,1.1,0,2.4,1.5,2.3,2.5,2.5,2.6,4,.9,2.1-2.3,2-3-.5-5.7s-2-5.3.8-5.2c3.5.1,7.1-2.1,8.1-5.1.9-2.5.7-3.4-1-5.6-1.1-1.4-1.7-3.3-1.4-4.1.4-1.2.2-1.5-.9-1.1-2,.8-2.8-.8-1-2.3,1.1-.9,1.5-.9,1.5-.1s.5.9,1,.6c1.1-.7,4,1.8,4,3.4,0,.6.7,1.1,1.6,1.1,1.3,0,1.3-.4-.3-3.1-1.8-3-1.8-3,.6-4.8,1.8-1.4,2.3-2.5,1.9-4.9-.4-2.7-.2-3,1.1-2,.9.7.7.2-.4-1-1.7-1.8-3.9-2.7-7.7-3.1-.3-.1-.4-1-.1-2.1.5-1.9,2.8-2.6,7.5-2.2,1,.1,1.7-.4,1.5-1s.8-1.1,2.1-1.1c3.3.1,3.4.2,2.3,2.2-.8,1.4-.4,2.4,1.9,4.6l3,2.9v-2.7c0-1.5-.7-3-1.5-3.3-2.1-.8-1.9-2.4.3-2.4,1.9-.1,6.3-3,4.4-3a1.13,1.13,0,0,1-1.2-1.06v0c0-.7,1.2-.8,3.3-.4s2.8.4,2.2-.2c-1.5-1.4-11-3.3-16.8-3.3a105.17,105.17,0,0,1-13-1.5c-4.6-.8-8.9-1-10.6-.5a7.32,7.32,0,0,1-4.2,0c-.8-.5-4.2-1-7.6-1.2s-6.1-.7-6-1.3C180.1,4.23,174,3.83,169.1,4.53ZM126,33.43a7.43,7.43,0,0,1,3,4c.7,2.7,2.9,3.4,2.4.8a1.77,1.77,0,0,1,1-2.1c.6-.3,1.2,0,1.2.5,0,2,3,4,5.5,3.7,2.3-.2,2.6.1,2.3,2.4-.2,2-.9,2.6-3.1,2.8a16.81,16.81,0,0,1-5.5-.8c-2.1-.8-2.9-.7-3.6.4-.8,1.3-1.5,1.2-4.7-.5-2.6-1.3-3.6-2.4-3.2-3.5.5-1.3-.1-1.4-3.8-1a36.14,36.14,0,0,0-6.6,1.2c-1.4.4-2.3.3-2.3-.3s.9-1.2,2-1.5,2-1.2,2-2,1.6-2.2,3.5-3.1c3.4-1.7,3.6-1.6,7,1,1.9,1.4,3.5,2.1,3.5,1.5a2.15,2.15,0,0,0-1.4-1.7c-1.4-.5-3.1-3.4-2-3.4A12.93,12.93,0,0,1,126,33.43Z" transform="translate(0 0)"/><path d="M211.6,79.33c0,.26.49.63,1,.84A2.3,2.3,0,0,1,214,81.48a1.44,1.44,0,0,0,1.42,1,9.77,9.77,0,0,1,4.42,2c.16.11-.22.53-.76,1-1,.73-1,.73.05.73a7.37,7.37,0,0,1,2.79.9c1.58.89,1.69.89,2.84-.11s1.2-1,2.13.11,5,2.26,5,1.31c0-.32-.77-1-1.64-1.68s-1.53-1.37-1.37-1.58c.55-.89-1.91-2.63-5.9-4.15-3.38-1.31-4-1.42-4.8-.79-1.15,1-1.59,1-1.59-.31,0-.9-.38-1-2.46-1C212.69,78.86,211.6,79.07,211.6,79.33Z" transform="translate(0 0)"/><path d="M212.69,88.79a.67.67,0,0,1-.71.58c-.44,0-1.09.63-1.48,1.41s-.82,1.21-.92.79c-.39-1-1.75-.73-3.55.68a5.74,5.74,0,0,1-2.3,1.32c-.38,0-1,.58-1.31,1.26a4.19,4.19,0,0,1-2.68,1.89c-4.26,1.37-6.17,2.57-6.17,3.94,0,.74-.16,1.31-.38,1.31s-.33,1.42-.27,3.16c.16,2.05-.06,3.46-.5,4-.87,1,0,1.89,1.75,1.84,3.12-.11,6.28-.79,7.81-1.68a9.52,9.52,0,0,1,4.59-1c2.57,0,3,.16,3.39,1.31a3.69,3.69,0,0,0,1.86,1.89c.87.42,1.2.9,1,1.53-.22.79.17,1,2.24,1.31,4.54.68,6,.05,10.33-4.25a30.35,30.35,0,0,0,5-6.31l1-2.36-1.2-.79A2.65,2.65,0,0,1,229.08,99c0-.42-.22-.73-.55-.73a.68.68,0,0,1-.55-.74c0-.42-.49-.89-1-1.1-.77-.21-1.21-1-1.48-2.68-.16-1.26-.55-2.31-.76-2.31s-.55-.63-.66-1.42c-.16-1.37-1.53-2.42-1.53-1.21A18.93,18.93,0,0,1,221.37,92l-1.14,2.63-1.64-1.1c-.88-.63-1.42-1.27-1.15-1.48a2.66,2.66,0,0,0,.49-1.68c.06-1.15-.16-1.36-1.36-1.36a10.41,10.41,0,0,1-2.62-.42C213.13,88.31,212.69,88.42,212.69,88.79Z" transform="translate(0 0)"/></svg>