<svg id="Layer_1" data-name="Layer 1" xmlns="http://www.w3.org/2000/svg" viewBox="0 0 39.72 35.7"><path d="M120.28,47.54c0,.26.49.63,1,.84a2.31,2.31,0,0,1,1.31,1.31,1.44,1.44,0,0,0,1.42,1.05,9.77,9.77,0,0,1,4.42,2c.16.1-.22.53-.76.95-1,.73-1,.73.05.73a7.52,7.52,0,0,1,2.79.89c1.58.9,1.69.9,2.84-.1s1.2-1.05,2.13.1,5,2.26,5,1.32c0-.32-.77-1.05-1.64-1.68s-1.53-1.37-1.37-1.58c.55-.89-1.91-2.63-5.9-4.15-3.38-1.31-4-1.42-4.8-.79-1.15,1-1.59,1-1.59-.31,0-.9-.38-1-2.45-1C121.37,47.07,120.28,47.28,120.28,47.54Z" transform="translate(-100.76 -47.07)"/><path d="M121.37,57a.66.66,0,0,1-.71.57c-.44,0-1.09.63-1.47,1.42s-.82,1.21-.93.79c-.39-1-1.75-.74-3.55.68a5.74,5.74,0,0,1-2.3,1.32c-.38,0-1,.57-1.31,1.26a4.19,4.19,0,0,1-2.68,1.89c-4.26,1.36-6.17,2.57-6.17,3.94,0,.73-.16,1.31-.38,1.31s-.33,1.42-.27,3.16c.16,2-.06,3.46-.49,4-.88,1,0,1.89,1.74,1.84,3.12-.11,6.28-.79,7.81-1.68a9.55,9.55,0,0,1,4.59-1c2.57,0,3,.16,3.39,1.31a3.69,3.69,0,0,0,1.86,1.89c.87.42,1.2.9,1,1.53-.21.78.17,1,2.24,1.31,4.54.68,6,0,10.33-4.26a30.09,30.09,0,0,0,5-6.3l1-2.37-1.2-.78a2.65,2.65,0,0,1-1.14-1.58c0-.42-.22-.73-.55-.73a.68.68,0,0,1-.55-.74c0-.42-.49-.89-1-1.1-.77-.21-1.21-1-1.48-2.68-.16-1.26-.55-2.32-.76-2.32s-.55-.63-.66-1.41c-.16-1.37-1.53-2.42-1.53-1.21a18,18,0,0,1-1.15,3.15l-1.14,2.63-1.64-1.11c-.87-.63-1.42-1.26-1.15-1.47a2.66,2.66,0,0,0,.49-1.68c.06-1.15-.16-1.36-1.36-1.36a10.41,10.41,0,0,1-2.62-.42C121.81,56.52,121.37,56.63,121.37,57Z" transform="translate(-100.76 -47.07)"/></svg>